<?xml version="1.0" encoding="UTF-8"?>
<svg version="1.1" xmlns="http://www.w3.org/2000/svg" width="684" height="143">
<path d="M0 0 C225.72 0 451.44 0 684 0 C684 47.19 684 94.38 684 143 C458.28 143 232.56 143 0 143 C0 95.81 0 48.62 0 0 Z " fill="#FDFDFD" transform="translate(0,0)"/>
<path d="M0 0 C1.73299095 -0.02409439 1.73299095 -0.02409439 3.50099182 -0.04867554 C8.8143067 -0.09304391 14.1274708 -0.13467183 19.44091797 -0.15722656 C22.9324643 -0.17379812 26.42305254 -0.21849968 29.91423893 -0.26959801 C33.25779518 -0.31157035 36.60127337 -0.31843092 39.94506836 -0.33056641 C41.81425682 -0.36457047 41.81425682 -0.36457047 43.72120667 -0.39926147 C51.10322897 -0.3813923 55.94153298 0.31582556 61.59741211 5.19287109 C62.15260025 5.66742737 62.70778839 6.14198364 63.27980042 6.63092041 C64.95458682 8.14269022 66.55337214 9.70653627 68.14428711 11.30615234 C68.72277405 11.87939743 69.30126099 12.45264252 69.89727783 13.04325867 C71.10755455 14.24716346 72.31404829 15.4548825 73.5168457 16.66625977 C75.3448535 18.50280055 77.19079898 20.31985357 79.03881836 22.13623047 C80.22093922 23.31673936 81.40196675 24.49834429 82.58178711 25.68115234 C83.12663757 26.21476883 83.67148804 26.74838531 84.23284912 27.298172 C90.83053155 34.01616571 93.21960631 40.26258022 93.19897461 49.62646484 C93.20754486 50.50383804 93.21611511 51.38121124 93.22494507 52.28517151 C93.23636525 54.12977669 93.23748137 55.97447188 93.22875977 57.8190918 C93.22243463 60.62039669 93.26943549 63.41747724 93.32006836 66.21826172 C93.44335597 82.50796647 93.44335597 82.50796647 88.46948242 88.3449707 C87.85169922 88.95477783 87.23391602 89.56458496 86.59741211 90.19287109 C85.91517578 90.92578369 85.23293945 91.65869629 84.5300293 92.41381836 C82.29351786 94.75583028 79.99377178 97.01060482 77.65991211 99.25537109 C72.6189629 104.15337429 67.70926529 109.04466714 63.18237305 114.42749023 C61.49854642 116.3029909 59.67223642 117.89967161 57.78491211 119.56787109 C54.90319392 122.36725677 54.0599079 124.47496933 53.39819336 128.41943359 C53.16289917 129.76255615 53.16289917 129.76255615 52.92285156 131.1328125 C52.76175903 132.1525415 52.76175903 132.1525415 52.59741211 133.19287109 C44.91274572 133.30912809 37.22817143 133.39776927 29.54282379 133.45193195 C25.97346254 133.47793836 22.40470642 133.51316838 18.83569336 133.57006836 C15.38618594 133.62471394 11.93725758 133.65435887 8.48735046 133.66725731 C6.54195028 133.68088415 4.59678051 133.71986558 2.6517334 133.75935364 C-4.68999436 133.76166294 -9.78340276 133.14328809 -15.40258789 128.19287109 C-18.53023639 124.98502648 -19.89281559 122.65337874 -20.40258789 118.19287109 C-18.42258789 118.19287109 -16.44258789 118.19287109 -14.40258789 118.19287109 C-14.40258789 117.53287109 -14.40258789 116.87287109 -14.40258789 116.19287109 C-9.13143735 112.38533982 -3.3524643 109.74281813 2.59741211 107.19287109 C4.12024815 106.31831621 5.62945961 105.41984784 7.12866211 104.50537109 C10.75290815 102.30861802 14.38475104 100.12758529 18.03491211 97.97412109 C18.95014648 97.43400391 19.86538086 96.89388672 20.80834961 96.33740234 C22.66772461 95.24104818 24.52709961 94.14469401 26.38647461 93.04833984 C27.30170898 92.50822266 28.21694336 91.96810547 29.15991211 91.41162109 C30.50569336 90.61884766 30.50569336 90.61884766 31.87866211 89.81005859 C33.74028806 88.70271212 35.59414776 87.58223359 37.44116211 86.45068359 C38.33834961 85.90154297 39.23553711 85.35240234 40.15991211 84.78662109 C40.96557617 84.28839844 41.77124023 83.79017578 42.60131836 83.27685547 C44.59741211 82.19287109 44.59741211 82.19287109 46.59741211 82.19287109 C48.04903786 65.69395508 48.04903786 65.69395508 44.40307617 50.06738281 C41.10226883 46.79587257 36.93325625 45.55944074 32.59741211 44.19287109 C31.06496261 43.22142926 29.55797632 42.20687139 28.09741211 41.13037109 C25.82649881 39.51492595 25.06457224 39.13319006 22.25830078 39.49169922 C19.50895038 40.21618168 17.63134607 41.17463334 15.24194336 42.69677734 C14.4549707 43.18984375 13.66799805 43.68291016 12.85717773 44.19091797 C12.04958008 44.7071875 11.24198242 45.22345703 10.40991211 45.75537109 C8.79390532 46.78142733 7.1755281 47.80376281 5.55444336 48.82177734 C4.48673706 49.50348999 4.48673706 49.50348999 3.39746094 50.19897461 C1.59741211 51.19287109 1.59741211 51.19287109 -0.40258789 51.19287109 C-0.73258789 35.68287109 -1.06258789 20.17287109 -1.40258789 4.19287109 C-3.05258789 5.51287109 -4.70258789 6.83287109 -6.40258789 8.19287109 C-6.44500512 5.85992334 -6.44351726 3.52584543 -6.40258789 1.19287109 C-4.67598578 -0.53373101 -2.3553026 0.02964455 0 0 Z " fill="#EE3A33" transform="translate(590.402587890625,9.80712890625)"/>
<path d="M0 0 C0.33 0 0.66 0 1 0 C1.495 2.475 1.495 2.475 2 5 C3.65 3.68 5.3 2.36 7 1 C7 16.84 7 32.68 7 49 C18.01891535 42.53183853 18.01891535 42.53183853 29 36 C32.64842858 36.21118648 35.59676758 38.35730158 38.6875 40.1875 C39.66074219 40.75855469 40.63398437 41.32960937 41.63671875 41.91796875 C42.74660156 42.60503906 43.85648438 43.29210938 45 44 C45.78576416 44.34192383 46.57152832 44.68384766 47.38110352 45.03613281 C50.18994376 46.44290494 51.96971886 47.58603083 54 50 C55.12439203 55.156299 54.85150068 60.15117647 54.5625 65.375 C54.51731176 66.79284191 54.47625462 68.21082187 54.43945312 69.62890625 C54.34069791 73.08882428 54.18567808 76.54353111 54 80 C53.28046143 80.4125 52.56092285 80.825 51.81958008 81.25 C32.04919681 92.48460727 32.04919681 92.48460727 12.73828125 104.48046875 C9.47400904 106.60069127 6.42390076 108.31048505 2.75 109.625 C-0.47334435 110.80689293 -2.38819 111.89046115 -5 114 C-5.66 114 -6.32 114 -7 114 C-7 114.66 -7 115.32 -7 116 C-7.639375 116.28875 -8.27875 116.5775 -8.9375 116.875 C-11.15206079 117.82823451 -11.15206079 117.82823451 -12 120 C-16.5729877 118.47567077 -19.07969134 115.17914547 -22 111.4375 C-23.90073504 108.93741324 -23.90073504 108.93741324 -26.359375 107.16796875 C-29.07675169 104.93698641 -31.0876793 102.63979937 -33.25 99.875 C-33.93578125 99.00617188 -34.6215625 98.13734375 -35.328125 97.2421875 C-37.58891754 94.21019003 -38.13474954 92.53310638 -38.25634766 88.81665039 C-38.28532135 87.95137222 -38.31429504 87.08609406 -38.34414673 86.19459534 C-38.44210648 82.20571776 -38.51581269 78.21700864 -38.56982422 74.22729492 C-38.60633405 72.13314908 -38.66075226 70.03923176 -38.73388672 67.94604492 C-39.40823343 48.33871517 -39.40823343 48.33871517 -34.140625 41.7421875 C-32.47228616 40.11382168 -30.75644972 38.53291035 -29 37 C-27.20483912 35.16349343 -25.41590138 33.32088594 -23.6328125 31.47265625 C-21.8020282 29.66403957 -19.96606083 27.86065475 -18.125 26.0625 C-16.27119551 24.24316708 -14.41953916 22.42164203 -12.5703125 20.59765625 C-11.76352051 19.80883057 -10.95672852 19.02000488 -10.12548828 18.20727539 C-7.97327239 16.07393223 -7.97327239 16.07393223 -6.33935547 13.71264648 C-5.89736816 13.14747314 -5.45538086 12.5822998 -5 12 C-4.34 12 -3.68 12 -3 12 C-2.67 11.01 -2.34 10.02 -2 9 C-1.34 9 -0.68 9 0 9 C0 6.03 0 3.06 0 0 Z " fill="#F7AE85" transform="translate(583,12)"/>
<path d="M0 0 C0.33 0 0.66 0 1 0 C1 9.24 1 18.48 1 28 C2.32 27.34 3.64 26.68 5 26 C5.99 26 6.98 26 8 26 C8.495 45.8 8.495 45.8 9 66 C9.66 66 10.32 66 11 66 C11 63.69 11 61.38 11 59 C14.4342662 58.14143345 16.61682513 58.02408417 20 59 C19.15695312 59.75023437 18.31390625 60.50046875 17.4453125 61.2734375 C16.33748437 62.30615864 15.2307724 63.34007801 14.125 64.375 C13.56941406 64.86355469 13.01382813 65.35210937 12.44140625 65.85546875 C9.0371492 69.09566522 7.62978907 71.55263349 6.82373047 76.22509766 C6.66355438 77.12072418 6.5033783 78.01635071 6.33834839 78.93911743 C6.22669342 79.61920868 6.11503845 80.29929993 6 81 C-1.68466639 81.11625699 -9.36924068 81.20489817 -17.05458832 81.25906086 C-20.62394957 81.28506727 -24.19270569 81.32029728 -27.76171875 81.37719727 C-31.21122617 81.43184284 -34.66015453 81.46148778 -38.11006165 81.47438622 C-40.05546183 81.48801305 -42.0006316 81.52699448 -43.94567871 81.56648254 C-51.28740647 81.56879184 -56.38081487 80.95041699 -62 76 C-65.1276485 72.79215539 -66.4902277 70.46050765 -67 66 C-65.02 66 -63.04 66 -61 66 C-61 65.34 -61 64.68 -61 64 C-55.72884946 60.19246872 -49.94987641 57.54994703 -44 55 C-42.47716395 54.12544512 -40.9679525 53.22697675 -39.46875 52.3125 C-35.84450396 50.11574693 -32.21266107 47.9347142 -28.5625 45.78125 C-27.64726563 45.24113281 -26.73203125 44.70101562 -25.7890625 44.14453125 C-23.9296875 43.04817708 -22.0703125 41.95182292 -20.2109375 40.85546875 C-19.29570313 40.31535156 -18.38046875 39.77523437 -17.4375 39.21875 C-16.5403125 38.69023438 -15.643125 38.16171875 -14.71875 37.6171875 C-12.85712405 36.50984103 -11.00326435 35.3893625 -9.15625 34.2578125 C-7.81046875 33.43410156 -7.81046875 33.43410156 -6.4375 32.59375 C-5.63183594 32.09552734 -4.82617188 31.59730469 -3.99609375 31.08398438 C-2 30 -2 30 0 30 C0 20.1 0 10.2 0 0 Z " fill="#FC6884" transform="translate(637,62)"/>
<path d="M0 0 C14 0 14 0 17.16796875 2.68359375 C18.2277832 4.47045898 18.2277832 4.47045898 19.1875 6.4375 C19.9754898 7.81311503 20.76459719 9.18809033 21.5546875 10.5625 C21.9475293 11.28695312 22.34037109 12.01140625 22.74511719 12.7578125 C24.9019559 16.61158813 27.37812459 20.25539959 29.8125 23.9375 C33.26586332 29.25686925 36.63835095 34.62136151 40 40 C40.33 26.8 40.66 13.6 41 0 C45.62 0 50.24 0 55 0 C55 21.45 55 42.9 55 65 C41 65 41 65 38.0078125 62.59765625 C37.02490234 60.93383789 37.02490234 60.93383789 36.125 59.0625 C35.35141228 57.70692998 34.57515228 56.35288304 33.796875 55 C33.37341797 54.2265625 32.94996094 53.453125 32.51367188 52.65625 C30.10856218 48.4356704 27.44373754 44.38687837 24.80175781 40.3125 C21.50920751 35.22461543 18.2589958 30.10944257 15 25 C14.67 38.2 14.34 51.4 14 65 C9.38 65 4.76 65 0 65 C0 43.55 0 22.1 0 0 Z " fill="#020202" transform="translate(326,38)"/>
<path d="M0 0 C1.73299095 -0.02409439 1.73299095 -0.02409439 3.50099182 -0.04867554 C8.8143067 -0.09304391 14.1274708 -0.13467183 19.44091797 -0.15722656 C22.9324643 -0.17379812 26.42305254 -0.21849968 29.91423893 -0.26959801 C33.25779518 -0.31157035 36.60127337 -0.31843092 39.94506836 -0.33056641 C41.81425682 -0.36457047 41.81425682 -0.36457047 43.72120667 -0.39926147 C52.40153413 -0.37824958 57.45688808 1.19911937 63.69116211 7.21240234 C64.38725586 8.09992187 64.38725586 8.09992187 65.09741211 9.00537109 C65.58209961 9.60994141 66.06678711 10.21451172 66.56616211 10.83740234 C66.90647461 11.28470703 67.24678711 11.73201172 67.59741211 12.19287109 C53.51974492 20.72068872 39.3493968 29.11612148 25.02319336 37.22021484 C22.19449757 38.84905335 19.39879543 40.51441741 16.60913086 42.20849609 C15.73836914 42.73701172 14.86760742 43.26552734 13.97045898 43.81005859 C12.15889644 44.91148862 10.34903517 46.01572103 8.54077148 47.12255859 C7.24429688 47.90759766 7.24429688 47.90759766 5.92163086 48.70849609 C5.13876709 49.18577148 4.35590332 49.66304687 3.54931641 50.15478516 C1.59741211 51.19287109 1.59741211 51.19287109 -0.40258789 51.19287109 C-0.73258789 35.68287109 -1.06258789 20.17287109 -1.40258789 4.19287109 C-3.05258789 5.51287109 -4.70258789 6.83287109 -6.40258789 8.19287109 C-6.44500512 5.85992334 -6.44351726 3.52584543 -6.40258789 1.19287109 C-4.67598578 -0.53373101 -2.3553026 0.02964455 0 0 Z " fill="#F86515" transform="translate(590.402587890625,9.80712890625)"/>
<path d="M0 0 C2.68333241 1.18736151 5.16578382 2.5786541 7.69140625 4.07421875 C9.15126953 4.93080078 9.15126953 4.93080078 10.640625 5.8046875 C11.75050781 6.49175781 12.86039063 7.17882813 14.00390625 7.88671875 C14.77371826 8.23806885 15.54353027 8.58941895 16.33666992 8.95141602 C20.37436527 11.0415504 22.55013072 12.58220449 24.07641602 16.9699707 C24.69501966 20.81937841 24.94076208 24.56026861 24.94140625 28.44921875 C24.95271576 29.12324738 24.96402527 29.797276 24.97567749 30.49172974 C24.98599912 36.39384946 24.66312318 41.78229008 20.88574219 46.57324219 C15.22314455 51.31826018 8.23870234 55.19834933 1.00390625 56.88671875 C-3.48218084 56.40064346 -6.13845724 54.66688399 -9.80859375 52.07421875 C-14.37022184 48.86239871 -18.9710811 46.27313944 -23.99609375 43.88671875 C-24.24491779 39.74284141 -24.42542345 35.60299756 -24.54541016 31.45385742 C-24.59544788 30.04586032 -24.66351368 28.63837652 -24.75048828 27.23217773 C-25.452383 15.58485418 -25.452383 15.58485418 -21.94970703 11.50048828 C-19.37804609 9.6877892 -16.82170574 8.26352294 -13.99609375 6.88671875 C-12.83276214 6.15183219 -11.6772014 5.40426782 -10.53515625 4.63671875 C-9.09269531 3.77046875 -9.09269531 3.77046875 -7.62109375 2.88671875 C-6.64398437 2.28859375 -5.666875 1.69046875 -4.66015625 1.07421875 C-1.99609375 -0.11328125 -1.99609375 -0.11328125 0 0 Z " fill="#FEFCFB" transform="translate(613.99609375,48.11328125)"/>
<path d="M0 0 C15.18 0 30.36 0 46 0 C46 3.96 46 7.92 46 12 C35.44 12 24.88 12 14 12 C14 17.28 14 22.56 14 28 C21.59 28 29.18 28 37 28 C37 31.63 37 35.26 37 39 C29.74 39 22.48 39 15 39 C15 43.95 15 48.9 15 54 C25.23 54 35.46 54 46 54 C46 57.96 46 61.92 46 66 C30.82 66 15.64 66 0 66 C0 44.22 0 22.44 0 0 Z " fill="#080808" transform="translate(273,37)"/>
<path d="M0 0 C14.85 0 29.7 0 45 0 C45 3.63 45 7.26 45 11 C34.77 11 24.54 11 14 11 C14 16.28 14 21.56 14 27 C21.59 27 29.18 27 37 27 C37 30.63 37 34.26 37 38 C29.41 38 21.82 38 14 38 C14 42.95 14 47.9 14 53 C24.23 53 34.46 53 45 53 C45 56.96 45 60.92 45 65 C30.15 65 15.3 65 0 65 C0 43.55 0 22.1 0 0 Z " fill="#010101" transform="translate(5,38)"/>
<path d="M0 0 C0.33 0 0.66 0 1 0 C1.495 2.475 1.495 2.475 2 5 C3.65 3.68 5.3 2.36 7 1 C8.42441138 54.49688418 8.42441138 54.49688418 7 77 C2.71979479 77 0.02888226 75.99770401 -3.0625 73 C-3.701875 72.34 -4.34125 71.68 -5 71 C-8.18281951 68.98421431 -11.29329615 68.50545962 -15 68 C-15 67.34 -15 66.68 -15 66 C-15.763125 65.71125 -16.52625 65.4225 -17.3125 65.125 C-20 64 -20 64 -23 62 C-23 61.34 -23 60.68 -23 60 C-24.98 59.67 -26.96 59.34 -29 59 C-29 58.01 -29 57.02 -29 56 C-29.928125 55.71125 -30.85625 55.4225 -31.8125 55.125 C-35 54 -35 54 -38 52 C-37.79459897 45.66191095 -34.53728238 42.76237313 -30.3125 38.5 C-29.64637695 37.80874023 -28.98025391 37.11748047 -28.29394531 36.40527344 C-23.09793859 31.03778134 -17.81803503 25.74562012 -12.48168945 20.51757812 C-10.21376892 18.28615594 -8.12884103 16.17444847 -6.234375 13.609375 C-5.82703125 13.07828125 -5.4196875 12.5471875 -5 12 C-4.34 12 -3.68 12 -3 12 C-2.67 11.01 -2.34 10.02 -2 9 C-1.34 9 -0.68 9 0 9 C0 6.03 0 3.06 0 0 Z " fill="#FEBE5A" transform="translate(583,12)"/>
<path d="M0 0 C0.29296875 3.0390625 0.29296875 3.0390625 0.1875 6.625 C0.14689453 8.40777344 0.14689453 8.40777344 0.10546875 10.2265625 C0.07066406 11.14179687 0.03585937 12.05703125 0 13 C-0.73089844 12.70351563 -1.46179688 12.40703125 -2.21484375 12.1015625 C-11.23324389 8.53467773 -20.1911298 5.95449797 -29.80859375 8.84375 C-34.78199732 11.03116078 -38.6317199 13.63693554 -41.22265625 18.49609375 C-43.29517771 25.17190409 -43.2424143 33.08154782 -40.5 39.5625 C-37.79135481 43.84658168 -34.90226126 46.52316816 -30 48 C-18.78835066 49.41353471 -9.08930761 48.11132324 1 43 C1.34211809 47.38417991 1.52036508 51.62568106 1 56 C-1.625 58.6875 -1.625 58.6875 -5 60 C-5.83789062 60.34933594 -6.67578125 60.69867188 -7.5390625 61.05859375 C-12.30650014 62.35537983 -16.83060345 62.36835217 -21.75 62.375 C-22.6884375 62.39949219 -23.626875 62.42398438 -24.59375 62.44921875 C-34.92179705 62.49201453 -42.6246635 59.24106063 -50.08984375 52.14453125 C-57.19802071 44.16418534 -58.49437393 34.07086369 -58.30078125 23.71875 C-57.49219 13.72162176 -52.55884891 6.45937998 -45 0 C-31.2449215 -8.10434355 -13.63563679 -9.09042453 0 0 Z " fill="#060606" transform="translate(447,42)"/>
<path d="M0 0 C1 1 1 1 1.09765625 3.94140625 C1.08605469 5.13636719 1.07445312 6.33132812 1.0625 7.5625 C1.05347656 8.76003906 1.04445312 9.95757812 1.03515625 11.19140625 C1.02355469 12.11824219 1.01195312 13.04507813 1 14 C0.12859375 13.6390625 -0.7428125 13.278125 -1.640625 12.90625 C-10.95472522 9.27737978 -19.53645799 6.98585464 -29.4375 10.1875 C-35.2034106 13.12103346 -38.90987451 16.83963012 -41 23 C-41.83048317 30.8490787 -41.60831953 36.51955066 -37 43 C-37 43.66 -37 44.32 -37 45 C-36.4225 45.28875 -35.845 45.5775 -35.25 45.875 C-33.86220161 46.5688992 -32.48633775 47.28809957 -31.13305664 48.04711914 C-27.38442659 49.72171031 -23.48828176 49.42558155 -19.4375 49.4375 C-18.09800293 49.44330078 -18.09800293 49.44330078 -16.73144531 49.44921875 C-9.4308467 49.32192898 -4.35053275 47.7356075 2 44 C2 48.62 2 53.24 2 58 C-5.9931196 62.32060519 -12.19030051 63.51426573 -21.1875 63.5625 C-22.11320801 63.57667969 -23.03891602 63.59085937 -23.99267578 63.60546875 C-33.71159912 63.46680032 -41.96431421 59.71308884 -49 53 C-50.96214742 50.46514458 -52.57391676 47.86874885 -54 45 C-54.36351562 44.30132812 -54.72703125 43.60265625 -55.1015625 42.8828125 C-57.97897202 33.6500811 -57.57897835 20.84824991 -53.5 12.125 C-48.17689391 3.373664 -40.60666209 -2.11426133 -30.66796875 -4.578125 C-19.39120726 -6.36127323 -10.21956999 -5.04363891 0 0 Z " fill="#050505" transform="translate(239,41)"/>
<path d="M0 0 C15.18 0 30.36 0 46 0 C46 4.29 46 8.58 46 13 C35.77 13 25.54 13 15 13 C15 17.95 15 22.9 15 28 C22.59 28 30.18 28 38 28 C38 31.63 38 35.26 38 39 C30.08 39 22.16 39 14 39 C14 47.91 14 56.82 14 66 C9.38 66 4.76 66 0 66 C0 44.22 0 22.44 0 0 Z " fill="#0C0C0C" transform="translate(57,37)"/>
<path d="M0 0 C14.85 0 29.7 0 45 0 C45 3.96 45 7.92 45 12 C34.77 12 24.54 12 14 12 C14 16.95 14 21.9 14 27 C21.59 27 29.18 27 37 27 C37 30.63 37 34.26 37 38 C29.41 38 21.82 38 14 38 C14 46.91 14 55.82 14 65 C9.38 65 4.76 65 0 65 C0 43.55 0 22.1 0 0 Z " fill="#030303" transform="translate(109,38)"/>
<path d="M0 0 C0.33 0 0.66 0 1 0 C1.1492082 5.67412009 1.25761893 11.34707878 1.32958984 17.02270508 C1.35961541 18.94999097 1.4004498 20.87714191 1.45263672 22.80395508 C1.96638861 42.27112231 1.96638861 42.27112231 -3.09277344 48.14331055 C-3.7221582 48.75601807 -4.35154297 49.36872559 -5 50 C-5.71446289 50.76417236 -6.42892578 51.52834473 -7.16503906 52.31567383 C-9.49355538 54.75161119 -11.88545673 57.0999868 -14.3125 59.4375 C-15.93564385 61.0174278 -17.55684311 62.59935667 -19.17578125 64.18359375 C-19.88645752 64.86993896 -20.59713379 65.55628418 -21.3293457 66.26342773 C-23.07876632 67.90935071 -23.07876632 67.90935071 -24 70 C-26.06640625 70.4140625 -26.06640625 70.4140625 -28.5625 70.625 C-29.80193359 70.73714844 -29.80193359 70.73714844 -31.06640625 70.8515625 C-31.70449219 70.90054688 -32.34257813 70.94953125 -33 71 C-33.33 73.31 -33.66 75.62 -34 78 C-35.485 78.495 -35.485 78.495 -37 79 C-37 65.47 -37 51.94 -37 38 C-39.31 38.66 -41.62 39.32 -44 40 C-44 31.09 -44 22.18 -44 13 C-41.525 13.99 -41.525 13.99 -39 15 C-39 15.66 -39 16.32 -39 17 C-37.824375 17.2165625 -37.824375 17.2165625 -36.625 17.4375 C-34 18 -34 18 -32 19 C-32 19.66 -32 20.32 -32 21 C-30.68 21 -29.36 21 -28 21 C-28 21.66 -28 22.32 -28 23 C-26.90945313 23.40605469 -26.90945313 23.40605469 -25.796875 23.8203125 C-23.07597395 24.96795512 -20.74416958 26.30187997 -18.25 27.875 C-13.65569832 30.68952716 -8.97927619 32.95536968 -4 35 C-4 35.66 -4 36.32 -4 37 C-2.68 37.33 -1.36 37.66 0 38 C0 25.46 0 12.92 0 0 Z " fill="#E43B6A" transform="translate(682,50)"/>
<path d="M0 0 C4.95 0 9.9 0 15 0 C17.14903941 3.76903852 19.29435328 7.54011295 21.4375 11.3125 C22.04916016 12.38435547 22.66082031 13.45621094 23.29101562 14.56054688 C24.1659668 16.10258789 24.1659668 16.10258789 25.05859375 17.67578125 C25.59798584 18.62364502 26.13737793 19.57150879 26.69311523 20.5480957 C28 23 28 23 29 26 C29.66 26 30.32 26 31 26 C31.27255615 25.27458008 31.5451123 24.54916016 31.82592773 23.80175781 C32.96329626 21.08758831 34.26635924 18.68918472 35.78515625 16.171875 C36.31560547 15.29015625 36.84605469 14.4084375 37.39257812 13.5 C37.94365234 12.5925 38.49472656 11.685 39.0625 10.75 C39.61744141 9.82703125 40.17238281 8.9040625 40.74414062 7.953125 C44.8525916 1.1474084 44.8525916 1.1474084 46 0 C48.53049402 -0.07313567 51.03304837 -0.09247527 53.5625 -0.0625 C54.62887695 -0.05573242 54.62887695 -0.05573242 55.71679688 -0.04882812 C57.47790013 -0.03700864 59.23896036 -0.01907263 61 0 C57.90361027 6.01259024 54.58344284 11.72279423 50.73046875 17.28515625 C39.85953362 33.21219235 35.40121483 45.15528512 37 65 C32.38 65 27.76 65 23 65 C23.10183594 63.41316406 23.20367187 61.82632813 23.30859375 60.19140625 C23.86748811 42.33156545 19.0549875 31.40288958 8.96777344 16.90722656 C0 3.65806452 0 3.65806452 0 0 Z " fill="#040404" transform="translate(451,38)"/>
<path d="M0 0 C0 16.17 0 32.34 0 49 C-13.53 49 -27.06 49 -41 49 C-39.85435993 37.54359926 -39.85435993 37.54359926 -33.875 32.375 C-32.67146821 31.25834943 -31.4696283 30.13987243 -30.26953125 29.01953125 C-29.69541504 28.49568848 -29.12129883 27.9718457 -28.52978516 27.43212891 C-26.73134171 25.74849194 -25.13381074 23.9586295 -23.5625 22.0625 C-20.19320053 18.0991175 -16.54548828 14.43181841 -12.875 10.75 C-12.27631104 10.14679932 -11.67762207 9.54359863 -11.06079102 8.92211914 C-2.10880288 0 -2.10880288 0 0 0 Z " fill="#FEFDFD" transform="translate(684,94)"/>
<path d="M0 0 C4.62 0 9.24 0 14 0 C14 21.78 14 43.56 14 66 C9.38 66 4.76 66 0 66 C0 44.22 0 22.44 0 0 Z " fill="#060606" transform="translate(249,37)"/>
<path d="M0 0 C4.62 0 9.24 0 14 0 C14 21.45 14 42.9 14 65 C9.38 65 4.76 65 0 65 C0 43.55 0 22.1 0 0 Z " fill="#020202" transform="translate(160,38)"/>
<path d="M0 0 C2.88071286 1.57974576 4.80952406 3.5798614 6.9375 6.0625 C6.9375 7.0525 6.9375 8.0425 6.9375 9.0625 C-0.6875 10.3125 -0.6875 10.3125 -4.0625 8.0625 C-3.7325 6.7425 -3.4025 5.4225 -3.0625 4.0625 C-7.77092624 6.17576526 -7.77092624 6.17576526 -11.0625 10.0625 C-12.72378463 10.42169668 -14.39150023 10.75161632 -16.0625 11.0625 C-18.80822728 12.54237963 -18.80822728 12.54237963 -21.0625 14.0625 C-20.7325 15.0525 -20.4025 16.0425 -20.0625 17.0625 C-21.856875 17.1553125 -21.856875 17.1553125 -23.6875 17.25 C-28.48782645 17.81174033 -30.58293877 19.83147886 -34.0625 23.0625 C-34.7225 23.0625 -35.3825 23.0625 -36.0625 23.0625 C-35.7325 24.0525 -35.4025 25.0425 -35.0625 26.0625 C-31.55955129 27.77817661 -31.55955129 27.77817661 -28.0625 29.0625 C-28.0625 30.0525 -28.0625 31.0425 -28.0625 32.0625 C-30.5 32.9375 -30.5 32.9375 -34.0625 33.0625 C-37.28917738 31.35734528 -40.16976066 29.28026683 -43.0625 27.0625 C-41.72016029 23.03548086 -39.19442862 22.0639718 -35.6875 20.0625 C-35.03209229 19.67876221 -34.37668457 19.29502441 -33.70141602 18.8996582 C-31.49403317 17.61071118 -29.27891032 16.33585583 -27.0625 15.0625 C-24.54354386 13.60839565 -22.02522728 12.15319268 -19.50732422 10.69726562 C-17.86879589 9.75148219 -16.22856313 8.80864385 -14.58642578 7.86914062 C-11.19340327 5.92043072 -7.85645035 3.96206957 -4.6328125 1.7421875 C-2.0625 0.0625 -2.0625 0.0625 0 0 Z M-28.0625 27.0625 C-27.0725 27.5575 -27.0725 27.5575 -26.0625 28.0625 C-27.0525 28.5575 -27.0525 28.5575 -28.0625 29.0625 C-28.0625 28.4025 -28.0625 27.7425 -28.0625 27.0625 Z " fill="#DB2E1D" transform="translate(658.0625,21.9375)"/>
<path d="M0 0 C0.33 0.66 0.66 1.32 1 2 C2.89533342 2.46523063 2.89533342 2.46523063 5.0625 2.625 C6.361875 2.74875 7.66125 2.8725 9 3 C9.144375 4.093125 9.28875 5.18625 9.4375 6.3125 C9.88288104 9.93122987 9.88288104 9.93122987 11 13 C12.32 12.34 13.64 11.68 15 11 C15.433125 12.11375 15.86625 13.2275 16.3125 14.375 C17.69911119 18.17512334 17.69911119 18.17512334 21 20 C20.67 20.66 20.34 21.32 20 22 C15.4270123 20.47567077 12.92030866 17.17914547 10 13.4375 C7.89076138 10.86686544 5.59551614 9.06310257 3 7 C0 3.5862069 0 3.5862069 0 0 Z " fill="#F49A8C" transform="translate(551,110)"/>
<path d="M0 0 C1.14926266 0.95421808 2.29430541 1.91352045 3.4375 2.875 C4.39462891 3.67550781 4.39462891 3.67550781 5.37109375 4.4921875 C7 6 7 6 8 8 C6.42356682 9.01084265 4.8385483 10.00830511 3.25 11 C2.36828125 11.556875 1.4865625 12.11375 0.578125 12.6875 C-2 14 -2 14 -6 14 C-4.88392409 11.39582289 -3.96476062 9.96878797 -1.8125 8.0625 C-1.214375 7.381875 -0.61625 6.70125 0 6 C-0.23043864 3.34533951 -0.23043864 3.34533951 -1 1 C-0.67 0.67 -0.34 0.34 0 0 Z " fill="#FA7823" transform="translate(650,14)"/>
<path d="M0 0 C0.33 0 0.66 0 1 0 C1 9.24 1 18.48 1 28 C2.32 27.34 3.64 26.68 5 26 C5.99 26 6.98 26 8 26 C8 28.31 8 30.62 8 33 C7.67 33 7.34 33 7 33 C6.67 31.35 6.34 29.7 6 28 C3.7522025 30.05233685 2.9977758 31.00667261 2 34 C-0.97 34 -3.94 34 -7 34 C-2.25 30 -2.25 30 0 30 C0 20.1 0 10.2 0 0 Z " fill="#EA5D91" transform="translate(637,62)"/>
<path d="M0 0 C0.91007813 0.00902344 1.82015625 0.01804687 2.7578125 0.02734375 C3.45648437 0.03894531 4.15515625 0.05054688 4.875 0.0625 C4.875 0.7225 4.875 1.3825 4.875 2.0625 C8.175 2.3925 11.475 2.7225 14.875 3.0625 C14.875 3.3925 14.875 3.7225 14.875 4.0625 C8.44 4.5575 8.44 4.5575 1.875 5.0625 C1.545 6.7125 1.215 8.3625 0.875 10.0625 C-0.115 11.5475 -0.115 11.5475 -1.125 13.0625 C-1.455 9.7625 -1.785 6.4625 -2.125 3.0625 C-3.775 4.3825 -5.425 5.7025 -7.125 7.0625 C-7.125 5.0825 -7.125 3.1025 -7.125 1.0625 C-4.60024538 -0.19987731 -2.81299534 -0.03606404 0 0 Z " fill="#EC430A" transform="translate(591.125,10.9375)"/>
<path d="M0 0 C6.75 0.75 6.75 0.75 9 3 C10.64991582 3.70710678 12.31562256 4.37943989 14 5 C14 5.99 14 6.98 14 8 C11.5625 8.875 11.5625 8.875 8 9 C4.77332262 7.29484528 1.89273934 5.21776683 -1 3 C-0.67 2.01 -0.34 1.02 0 0 Z M14 3 C14.99 3.495 14.99 3.495 16 4 C15.01 4.495 15.01 4.495 14 5 C14 4.34 14 3.68 14 3 Z " fill="#DD362E" transform="translate(616,46)"/>
<path d="M0 0 C0.33 0 0.66 0 1 0 C1.33 5.28 1.66 10.56 2 16 C2.66 16 3.32 16 4 16 C4 13.69 4 11.38 4 9 C7.4342662 8.14143345 9.61682513 8.02408417 13 9 C11.21427748 10.83947337 9.42197551 12.67157741 7.625 14.5 C7.11710938 15.02464844 6.60921875 15.54929687 6.0859375 16.08984375 C4.76167396 17.43153181 3.38394135 18.71995815 2 20 C1.34 20 0.68 20 0 20 C0 13.4 0 6.8 0 0 Z " fill="#EC537C" transform="translate(644,112)"/>
<path d="M0 0 C0.33 0 0.66 0 1 0 C1.33 1.65 1.66 3.3 2 5 C3.65 3.68 5.3 2.36 7 1 C7 10.9 7 20.8 7 31 C6.67 31 6.34 31 6 31 C5.67 23.41 5.34 15.82 5 8 C3.02 8.99 1.04 9.98 -1 11 C-1.66 10.67 -2.32 10.34 -3 10 C-2.01 9.67 -1.02 9.34 0 9 C0 6.03 0 3.06 0 0 Z " fill="#F8A954" transform="translate(583,12)"/>
<path d="M0 0 C1.32 0 2.64 0 4 0 C4 0.66 4 1.32 4 2 C4.72703125 2.27070312 5.4540625 2.54140625 6.203125 2.8203125 C8.92402605 3.96795512 11.25583042 5.30187997 13.75 6.875 C18.34430168 9.68952716 23.02072381 11.95536968 28 14 C28 14.66 28 15.32 28 16 C25.0625 15.625 25.0625 15.625 22 15 C21.67 14.34 21.34 13.68 21 13 C19.68 13.33 18.36 13.66 17 14 C16.67 13.34 16.34 12.68 16 12 C15.34 11.67 14.68 11.34 14 11 C13.67 10.34 13.34 9.68 13 9 C12.01 9 11.02 9 10 9 C10 8.34 10 7.68 10 7 C9.01 7 8.02 7 7 7 C6.67 7.66 6.34 8.32 6 9 C5.87625 8.195625 5.7525 7.39125 5.625 6.5625 C5.41875 5.716875 5.2125 4.87125 5 4 C4.34 3.67 3.68 3.34 3 3 C3 2.34 3 1.68 3 1 C2.01 0.67 1.02 0.34 0 0 Z " fill="#D92653" transform="translate(650,71)"/>
<path d="M0 0 C4.455 1.98 4.455 1.98 9 4 C9 4.66 9 5.32 9 6 C7.68 5.67 6.36 5.34 5 5 C5 4.34 5 3.68 5 3 C4.01 3.99 3.02 4.98 2 6 C2.33 6.99 2.66 7.98 3 9 C2.75367118 11.59069971 2.44871022 14.11836247 2.0625 16.6875 C1.96259766 17.38939453 1.86269531 18.09128906 1.75976562 18.81445312 C1.51270675 20.54386527 1.25717148 22.2720627 1 24 C0.67 24 0.34 24 0 24 C0 16.08 0 8.16 0 0 Z " fill="#FCDB90" transform="translate(545,64)"/>
<path d="M0 0 C0.33 0 0.66 0 1 0 C1.09893328 5.4809035 1.17149865 10.96128645 1.21972656 16.44287109 C1.23983261 18.30722101 1.2671218 20.17150794 1.30175781 22.03564453 C1.35032121 24.71662948 1.37297838 27.39678023 1.390625 30.078125 C1.41127014 30.91055725 1.43191528 31.7429895 1.45318604 32.60064697 C1.45544041 38.42460278 1.45544041 38.42460278 -1.02441406 41.55761719 C-1.67635742 42.03360352 -2.32830078 42.50958984 -3 43 C-3.66 42.67 -4.32 42.34 -5 42 C-4.35256836 41.18450684 -3.70513672 40.36901367 -3.03808594 39.52880859 C-0.44530776 35.6199233 -0.39807636 32.12696563 -0.390625 27.5390625 C-0.37408875 26.74849457 -0.35755249 25.95792664 -0.34051514 25.1434021 C-0.29222512 22.63718756 -0.27070757 20.13157888 -0.25 17.625 C-0.22182426 15.91793858 -0.19189458 14.21090515 -0.16015625 12.50390625 C-0.08647191 8.33598743 -0.03678188 4.1684012 0 0 Z " fill="#FCE1E1" transform="translate(683,55)"/>
<path d="M0 0 C1.32 0.66 2.64 1.32 4 2 C3.34773437 2.31453125 2.69546875 2.6290625 2.0234375 2.953125 C-3.90453043 5.84224506 -3.90453043 5.84224506 -9.5 9.3125 C-12 11 -12 11 -14 11 C-13.67 10.01 -13.34 9.02 -13 8 C-12.34 8 -11.68 8 -11 8 C-10.67 6.35 -10.34 4.7 -10 3 C-9.04287109 2.80083984 -9.04287109 2.80083984 -8.06640625 2.59765625 C-7.24011719 2.42105469 -6.41382813 2.24445312 -5.5625 2.0625 C-4.32693359 1.80146484 -4.32693359 1.80146484 -3.06640625 1.53515625 C-1.02338796 1.19247006 -1.02338796 1.19247006 0 0 Z " fill="#FB7921" transform="translate(611,46)"/>
<path d="M0 0 C0.33 0 0.66 0 1 0 C1 2.97 1 5.94 1 9 C1.66 9 2.32 9 3 9 C3 9.66 3 10.32 3 11 C2.34 11 1.68 11 1 11 C1 11.66 1 12.32 1 13 C2.98 13.495 2.98 13.495 5 14 C4.67 14.99 4.34 15.98 4 17 C2.68 17.33 1.36 17.66 0 18 C0 12.06 0 6.12 0 0 Z " fill="#FB7A22" transform="translate(590,43)"/>
<path d="M0 0 C-0.33 2.64 -0.66 5.28 -1 8 C-3.31 8.33 -5.62 8.66 -8 9 C-3 0 -3 0 0 0 Z " fill="#FBC876" transform="translate(559,45)"/>
<path d="M0 0 C0.78375 0.04125 1.5675 0.0825 2.375 0.125 C2.375 1.115 2.375 2.105 2.375 3.125 C-0.95803391 5.62477543 -2.35803602 6.125 -6.625 6.125 C-3.85227273 0.18344156 -3.85227273 0.18344156 0 0 Z " fill="#FC7218" transform="translate(650.625,21.875)"/>
<path d="M0 0 C4.75481646 0.57634139 7.97048212 2.55068521 12 5 C12 5.66 12 6.32 12 7 C10.68 7 9.36 7 8 7 C8 6.34 8 5.68 8 5 C6.8553125 4.5978125 6.8553125 4.5978125 5.6875 4.1875 C3.12619116 3.05575888 1.80307062 2.08776599 0 0 Z " fill="#FBC772" transform="translate(560,73)"/>
<path d="M0 0 C0.98120464 3.05263664 0.98120464 4.94736336 0 8 C-1.65 8 -3.3 8 -5 8 C-3.8141763 4.62496331 -2.72426311 2.35277269 0 0 Z " fill="#FBC76E" transform="translate(550,54)"/>
<path d="M0 0 C1.32 0.33 2.64 0.66 4 1 C4 1.99 4 2.98 4 4 C5.32 4.33 6.64 4.66 8 5 C8 5.66 8 6.32 8 7 C7.01 7.33 6.02 7.66 5 8 C2.2175651 6.60878255 1.44789935 4.69835788 0 2 C0 1.34 0 0.68 0 0 Z " fill="#F9BB82" transform="translate(586,88)"/>
<path d="M0 0 C1.98 0 3.96 0 6 0 C4.125 5.75 4.125 5.75 3 8 C1.0549 5.08235 0.54723683 3.37462715 0 0 Z " fill="#F97884" transform="translate(570,128)"/>
<path d="M0 0 C0.66 0.33 1.32 0.66 2 1 C0.02 3.31 -1.96 5.62 -4 8 C-4.66 6.68 -5.32 5.36 -6 4 C-3.94766315 1.7522025 -2.99332739 0.9977758 0 0 Z " fill="#EA4C78" transform="translate(662,112)"/>
<path d="M0 0 C1.98 1.65 3.96 3.3 6 5 C3 6 3 6 -1 6 C-0.67 4.02 -0.34 2.04 0 0 Z " fill="#E9433B" transform="translate(670,34)"/>
<path d="M0 0 C3 0 3 0 6 2 C3.03 4.475 3.03 4.475 0 7 C0 4.69 0 2.38 0 0 Z " fill="#EB4F7B" transform="translate(665,104)"/>
<path d="M0 0 C4.43090471 1.20842856 6.98112756 2.51668565 10 6 C8.68 6.33 7.36 6.66 6 7 C6 6.34 6 5.68 6 5 C4.01924973 3.63823419 2.01920337 2.30406884 0 1 C0 0.67 0 0.34 0 0 Z " fill="#FAC378" transform="translate(572,80)"/>
<path d="M0 0 C0 0.66 0 1.32 0 2 C-2.97 3.65 -5.94 5.3 -9 7 C-9.33 6.34 -9.66 5.68 -10 5 C-8.71186658 4.16121545 -7.41936744 3.32913217 -6.125 2.5 C-5.40570312 2.0359375 -4.68640625 1.571875 -3.9453125 1.09375 C-2 0 -2 0 0 0 Z " fill="#F87C81" transform="translate(586,121)"/>
<path d="M0 0 C2 3.75 2 3.75 2 6 C-0.91517292 4.92598892 -2.77810176 4.22189824 -5 2 C-4.01 1.67 -3.02 1.34 -2 1 C-1.34 1.33 -0.68 1.66 0 2 C0 1.34 0 0.68 0 0 Z " fill="#E74E4A" transform="translate(631,53)"/>
<path d="M0 0 C-0.33 1.98 -0.66 3.96 -1 6 C-2.32 6 -3.64 6 -5 6 C-4.625 3.5625 -4.625 3.5625 -4 1 C-2 0 -2 0 0 0 Z " fill="#E7322A" transform="translate(670,34)"/>
<path d="M0 0 C6.75 0.75 6.75 0.75 9 3 C6.36 3.33 3.72 3.66 1 4 C1.33 3.34 1.66 2.68 2 2 C1.34 1.34 0.68 0.68 0 0 Z " fill="#FA7225" transform="translate(641,11)"/>
<path d="M0 0 C0.33 0.66 0.66 1.32 1 2 C0.01 3.485 0.01 3.485 -1 5 C-4.125 5.1875 -4.125 5.1875 -7 5 C-2.25 1.125 -2.25 1.125 0 0 Z " fill="#F971A4" transform="translate(625,98)"/>
<path d="M0 0 C5.75 1.875 5.75 1.875 8 3 C8 3.66 8 4.32 8 5 C6.68 4.67 5.36 4.34 4 4 C4 3.34 4 2.68 4 2 C2.02 2.99 2.02 2.99 0 4 C0 2.68 0 1.36 0 0 Z " fill="#FBD67C" transform="translate(546,65)"/>
<path d="M0 0 C0 3.90838866 -1.50567876 5.11594107 -4 8 C-4.99 7.67 -5.98 7.34 -7 7 C-4.69 4.69 -2.38 2.38 0 0 Z " fill="#FBC874" transform="translate(569,34)"/>
<path d="M0 0 C3 2 3 2 4 4 C1 5 1 5 -2 4 C-2 3.01 -2 2.02 -2 1 C-1.34 0.67 -0.68 0.34 0 0 Z " fill="#F85B8D" transform="translate(612,107)"/>
<path d="M0 0 C-0.33 1.32 -0.66 2.64 -1 4 C-2.98 4 -4.96 4 -7 4 C-2.25 0 -2.25 0 0 0 Z " fill="#F86AA4" transform="translate(637,92)"/>
<path d="M0 0 C0.99 0.66 1.98 1.32 3 2 C3 2.99 3 3.98 3 5 C1.35 5.33 -0.3 5.66 -2 6 C-1.34 4.02 -0.68 2.04 0 0 Z " fill="#DD3027" transform="translate(662,26)"/>
</svg>
